<?xml version="1.0" standalone="no"?>
<!DOCTYPE svg PUBLIC "-//W3C//DTD SVG 20010904//EN"
 "http://www.w3.org/TR/2001/REC-SVG-20010904/DTD/svg10.dtd">
<svg version="1.0" xmlns="http://www.w3.org/2000/svg"
 width="512.000000pt" height="512.000000pt" viewBox="0 0 512.000000 512.000000"
 preserveAspectRatio="xMidYMid meet">
<metadata>
Created by potrace 1.14, written by Peter Selinger 2001-2017
</metadata>
<g transform="translate(0.000000,512.000000) scale(0.100000,-0.100000)"
fill="#000000" stroke="none">
<path d="M2260 4239 l-55 -6 63 0 c35 0 65 3 67 7 5 8 1 7 -75 -1z"/>
<path d="M2453 4243 c9 -2 23 -2 30 0 6 3 -1 5 -18 5 -16 0 -22 -2 -12 -5z"/>
<path d="M2508 4243 c7 -3 16 -2 19 1 4 3 -2 6 -13 5 -11 0 -14 -3 -6 -6z"/>
<path d="M2557 4234 c-1 -1 -82 -4 -179 -8 -98 -3 -181 -7 -185 -8 -5 0 -16 2
-25 6 -9 4 -25 6 -35 3 -11 -3 -7 -5 12 -7 17 -1 -49 -15 -145 -30 -273 -45
-422 -82 -629 -157 -160 -58 -254 -101 -433 -202 -149 -83 -165 -90 -152 -69
4 7 3 8 -5 4 -6 -4 -9 -11 -6 -16 3 -5 -5 -12 -17 -16 -58 -18 -191 -199 -229
-312 -33 -96 -33 -277 -1 -344 53 -107 179 -171 233 -117 18 18 20 30 16 96
-3 73 -2 78 33 132 118 182 486 396 976 566 85 29 172 52 269 70 118 23 335
57 435 70 69 8 139 17 155 20 17 2 64 7 105 10 41 4 95 8 120 11 25 2 138 6
253 9 167 3 207 1 207 -10 0 -15 -68 -109 -135 -185 -26 -30 -59 -68 -73 -85
-14 -16 -32 -39 -41 -49 -15 -18 -15 -18 4 -8 35 20 50 35 93 94 45 61 141
163 147 156 2 -2 -15 -28 -39 -58 -23 -30 -46 -62 -52 -71 -9 -16 -83 -104
-132 -156 -12 -13 -20 -28 -18 -31 3 -6 -215 -309 -272 -377 -4 -5 -59 -82
-122 -170 -63 -88 -117 -162 -120 -165 -15 -13 -416 -593 -551 -795 -248 -371
-363 -571 -398 -696 -30 -106 -26 -310 8 -385 34 -79 96 -122 186 -130 106
-10 186 -11 244 -3 73 10 185 60 205 92 18 29 18 125 -1 153 -18 28 -82 58
-155 73 -46 10 -57 16 -62 36 -19 77 83 310 240 551 102 156 442 626 499 691
5 6 20 24 32 40 58 76 215 280 226 293 6 8 28 35 47 60 19 25 43 54 52 65 15
18 271 337 301 375 44 56 92 116 97 120 3 3 33 39 65 80 33 41 62 77 65 80 3
3 30 34 60 70 30 35 62 72 70 81 8 8 30 32 48 53 22 24 39 35 50 32 9 -3 53
-15 97 -27 170 -44 371 -130 479 -204 159 -109 222 -214 196 -327 -54 -229
-332 -498 -775 -750 -294 -167 -671 -319 -1021 -411 -179 -47 -213 -67 -191
-114 7 -16 7 -26 -2 -36 -9 -11 -7 -20 8 -38 18 -23 25 -24 133 -24 144 1 245
10 462 46 53 8 73 15 61 19 -15 5 -11 9 20 14 121 22 741 220 790 252 14 9 28
15 30 12 8 -7 -164 -89 -260 -123 -27 -10 -54 -22 -60 -27 -5 -4 -18 -8 -30
-9 -11 0 -15 -3 -8 -5 14 -6 130 34 213 73 203 95 364 177 417 215 68 47 174
146 243 226 54 62 124 194 108 203 -6 4 -7 12 -4 18 4 6 12 9 17 6 5 -3 7 0 4
7 -3 7 3 53 13 102 12 58 18 123 16 190 -1 83 2 114 21 171 29 87 33 240 10
329 -36 136 -179 277 -375 368 -151 70 -346 128 -510 153 -19 3 -46 7 -60 10
-14 2 -71 7 -128 10 -98 6 -106 9 -195 56 -51 27 -113 55 -136 64 -51 17 -91
11 -91 -15 0 -10 -6 -21 -12 -23 -7 -3 -3 -6 10 -6 12 -1 22 -5 22 -11 0 -12
-13 -12 -65 -1 -22 5 -58 12 -80 15 -22 3 -51 8 -65 10 -59 10 -149 20 -265
30 -44 3 -111 9 -150 12 -63 5 -224 11 -228 8z m2231 -1539 c-6 -14 -13 -23
-15 -21 -5 5 15 46 22 46 3 0 -1 -11 -7 -25z m-18 -39 c0 -2 -8 -10 -17 -17
-16 -13 -17 -12 -4 4 13 16 21 21 21 13z m-540 -460 c0 -2 -7 -7 -16 -10 -8
-3 -12 -2 -9 4 6 10 25 14 25 6z"/>
<path d="M2085 4220 c-3 -6 1 -7 9 -4 18 7 21 14 7 14 -6 0 -13 -4 -16 -10z"/>
<path d="M2023 4213 c9 -2 25 -2 35 0 9 3 1 5 -18 5 -19 0 -27 -2 -17 -5z"/>
<path d="M3247 4199 c7 -7 15 -10 18 -7 3 3 -2 9 -12 12 -14 6 -15 5 -6 -5z"/>
<path d="M3328 4183 c7 -3 16 -2 19 1 4 3 -2 6 -13 5 -11 0 -14 -3 -6 -6z"/>
<path d="M1130 3970 c-9 -6 -10 -10 -3 -10 6 0 15 5 18 10 8 12 4 12 -15 0z"/>
<path d="M1025 3919 c-87 -45 -209 -121 -219 -137 -4 -6 40 18 98 53 57 35
127 76 155 90 44 23 60 35 48 35 -2 0 -39 -18 -82 -41z"/>
</g>
</svg>
