<svg width="143" height="25" viewBox="0 0 143 25" fill="none" xmlns="http://www.w3.org/2000/svg">
<path d="M5.248 1.192C5.984 0.967999 6.752 0.799999 7.552 0.688C8.352 0.559999 9.192 0.495999 10.072 0.495999C10.28 0.495999 10.488 0.503999 10.696 0.519999C10.92 0.519999 11.136 0.527999 11.344 0.543999C11.2 0.543999 11.048 0.543999 10.888 0.543999C10.744 0.527999 10.6 0.519999 10.456 0.519999C9.672 0.519999 8.912 0.559999 8.176 0.639999C7.456 0.703999 6.84 0.791999 6.328 0.904C6.168 0.951999 5.992 0.999999 5.8 1.048C5.624 1.08 5.44 1.128 5.248 1.192ZM7.48 16.264C7.368 16.264 7.256 16.256 7.144 16.24C7.032 16.24 6.912 16.232 6.784 16.216C6.416 16.152 6.16 15.992 6.016 15.736C5.888 15.464 5.824 15.176 5.824 14.872C5.824 14.568 5.864 14.296 5.944 14.056C6.04 13.736 6.272 13.272 6.64 12.664C7.008 12.04 7.456 11.344 7.984 10.576C8.512 9.792 9.072 8.984 9.664 8.152C10.256 7.304 10.84 6.488 11.416 5.704C11.992 4.92 12.512 4.224 12.976 3.616C13.44 2.992 13.792 2.52 14.032 2.2C13.712 2.456 13.448 2.736 13.24 3.04C13.048 3.328 12.872 3.488 12.712 3.52C12.904 3.296 13.16 3 13.48 2.632C13.8 2.264 14 1.928 14.08 1.624C13.952 1.592 13.808 1.576 13.648 1.576C13.488 1.576 13.32 1.576 13.144 1.576C12.392 1.576 11.48 1.64 10.408 1.768C9.336 1.896 8.32 2.064 7.36 2.272C7.2 2.304 6.928 2.392 6.544 2.536C6.16 2.664 5.72 2.832 5.224 3.04C4.744 3.248 4.264 3.488 3.784 3.76C3.304 4.032 2.888 4.328 2.536 4.648C2.2 4.952 1.984 5.272 1.888 5.608C1.952 5.736 1.984 5.856 1.984 5.968C1.984 6.192 1.872 6.304 1.648 6.304C1.456 6.304 1.248 6.192 1.024 5.968C0.8 5.744 0.688 5.432 0.688 5.032C0.688 4.824 0.72 4.624 0.784 4.432C0.864 4.16 0.984 3.912 1.144 3.688C1.304 3.448 1.488 3.224 1.696 3.016L1.6 3.064L1.768 2.968L1.696 3.016C2.224 2.728 2.744 2.44 3.256 2.152C3.784 1.864 4.392 1.608 5.08 1.384C5.784 1.144 6.568 0.952 7.432 0.808C8.312 0.648 9.264 0.568 10.288 0.568C10.896 0.568 11.544 0.599999 12.232 0.663999C12.92 0.727999 13.632 0.831999 14.368 0.975999C14.48 1.008 14.536 1 14.536 0.951999C14.536 0.92 14.472 0.895999 14.344 0.879999C13.944 0.799999 13.544 0.735999 13.144 0.688C12.744 0.624 12.352 0.584 11.968 0.568C12.352 0.584 12.728 0.615999 13.096 0.663999C13.48 0.695999 13.848 0.751999 14.2 0.831999V0.759999C14.2 0.647999 14.264 0.592 14.392 0.592C14.424 0.592 14.504 0.607999 14.632 0.639999C14.76 0.687999 14.92 0.759999 15.112 0.855999C15.32 0.952 15.52 1.064 15.712 1.192C16.272 1.192 16.872 1.256 17.512 1.384C18.152 1.512 18.76 1.704 19.336 1.96C19.912 2.216 20.384 2.536 20.752 2.92C21.12 3.304 21.304 3.752 21.304 4.264C21.304 4.616 21.208 4.984 21.016 5.368C21.064 5.576 21.088 5.784 21.088 5.992C21.088 6.488 20.984 6.944 20.776 7.36C20.568 7.776 20.28 8.168 19.912 8.536C20.088 8.376 20.256 8.192 20.416 7.984C20.592 7.76 20.784 7.448 20.992 7.048C20.848 7.496 20.672 7.848 20.464 8.104C20.272 8.344 20.08 8.552 19.888 8.728C19.52 9.096 19.12 9.392 18.688 9.616C18.256 9.824 17.704 10.088 17.032 10.408C16.872 10.472 16.664 10.544 16.408 10.624C16.168 10.688 15.904 10.76 15.616 10.84C16.416 10.6 17.192 10.288 17.944 9.904C18.712 9.52 19.352 9.08 19.864 8.584L19.672 8.752C19.16 9.2 18.696 9.52 18.28 9.712C17.864 9.904 17.616 10.016 17.536 10.048C17.232 10.16 16.832 10.296 16.336 10.456C15.84 10.616 15.368 10.76 14.92 10.888C14.472 11.016 14.16 11.104 13.984 11.152L13.936 11.176C14.096 11.16 14.256 11.144 14.416 11.128C14.576 11.096 14.736 11.064 14.896 11.032C14.944 11.016 14.992 11 15.04 10.984C15.04 10.984 15.032 10.984 15.016 10.984C15 10.984 14.96 11 14.896 11.032C14.24 11.176 13.616 11.288 13.024 11.368C12.448 11.448 11.936 11.488 11.488 11.488C11.232 11.488 11.072 11.472 11.008 11.44C10.944 11.392 10.896 11.336 10.864 11.272C10.864 11.192 10.92 11.12 11.032 11.056C11.064 11.04 11.088 11.024 11.104 11.008C11.136 10.992 11.168 10.976 11.2 10.96C11.92 10.8 12.688 10.576 13.504 10.288C14.336 9.984 15.152 9.632 15.952 9.232C16.752 8.816 17.472 8.376 18.112 7.912C18.768 7.432 19.288 6.944 19.672 6.448C20.072 5.936 20.272 5.44 20.272 4.96C20.272 4.512 20.072 4.12 19.672 3.784C19.288 3.448 18.8 3.168 18.208 2.944C17.632 2.704 17.064 2.528 16.504 2.416C16.328 2.608 16.04 2.936 15.64 3.4C15.256 3.864 14.808 4.416 14.296 5.056C13.784 5.696 13.24 6.376 12.664 7.096C12.104 7.816 11.552 8.528 11.008 9.232C10.704 9.632 10.376 10.08 10.024 10.576C9.672 11.056 9.328 11.552 8.992 12.064C8.672 12.56 8.408 13.032 8.2 13.48C7.992 13.928 7.888 14.312 7.888 14.632C7.888 14.792 7.912 14.92 7.96 15.016C8.664 15.128 9.016 15.328 9.016 15.616C9.016 15.776 8.872 15.92 8.584 16.048C8.312 16.192 7.944 16.264 7.48 16.264ZM4.792 1.336H4.816L4.84 1.312H4.864H4.888C4.904 1.296 4.912 1.288 4.912 1.288C4.928 1.288 4.936 1.288 4.936 1.288C4.952 1.288 4.96 1.288 4.96 1.288C4.976 1.272 4.984 1.264 4.984 1.264C5 1.264 5.008 1.264 5.008 1.264C5.024 1.264 5.032 1.264 5.032 1.264C5.048 1.248 5.056 1.24 5.056 1.24C5.072 1.24 5.072 1.24 5.056 1.24C5.072 1.24 5.088 1.24 5.104 1.24H5.056L5.032 1.264H5.008H4.984L4.96 1.288H4.936C4.936 1.288 4.928 1.288 4.912 1.288C4.912 1.288 4.904 1.296 4.888 1.312C4.888 1.312 4.88 1.312 4.864 1.312C4.864 1.312 4.856 1.312 4.84 1.312C4.84 1.328 4.832 1.336 4.816 1.336C4.816 1.336 4.808 1.336 4.792 1.336ZM4.456 1.456H4.48H4.504L4.528 1.432C4.544 1.432 4.552 1.432 4.552 1.432C4.568 1.416 4.568 1.408 4.552 1.408C4.568 1.408 4.576 1.408 4.576 1.408H4.552V1.432C4.552 1.432 4.544 1.432 4.528 1.432C4.512 1.432 4.504 1.44 4.504 1.456C4.504 1.456 4.496 1.456 4.48 1.456C4.496 1.456 4.496 1.456 4.48 1.456C4.464 1.456 4.456 1.456 4.456 1.456ZM1.768 2.968C2.12 2.632 2.528 2.344 2.992 2.104C3.472 1.864 3.96 1.648 4.456 1.456C4.008 1.632 3.576 1.84 3.16 2.08C2.744 2.304 2.344 2.552 1.96 2.824L1.768 2.968ZM21.1848 16.192C20.9608 16.192 20.7208 16.144 20.4648 16.048C20.2248 15.968 20.0088 15.84 19.8168 15.664C19.6248 15.488 19.4168 15.224 19.1928 14.872C18.9848 14.504 18.8808 14.144 18.8808 13.792C18.8808 13.648 18.9048 13.52 18.9528 13.408C19.4648 12.032 20.2968 10.776 21.4488 9.64C22.6008 8.488 24.0088 7.52 25.6728 6.736C25.8968 6.736 26.1288 6.824 26.3688 7C26.6088 7.16 26.8088 7.36 26.9688 7.6L27.4008 7.744C27.3848 7.568 27.3288 7.464 27.2328 7.432C27.1368 7.384 27.0888 7.32 27.0888 7.24C27.1208 7.096 27.2248 7.016 27.4008 7C27.5768 6.968 27.7048 6.952 27.7848 6.952C28.0408 6.952 28.2488 7.072 28.4088 7.312C28.5848 7.536 28.6808 7.784 28.6968 8.056C29.0808 8.104 29.4808 8.136 29.8968 8.152C30.3128 8.168 30.6728 8.184 30.9768 8.2C31.2968 8.2 31.4728 8.2 31.5048 8.2H31.5768C31.6248 8.2 31.6488 8.232 31.6488 8.296C31.6488 8.408 31.5848 8.504 31.4568 8.584C31.2968 8.712 30.9208 8.8 30.3288 8.848C29.7528 8.88 29.1448 8.896 28.5048 8.896C28.4248 9.136 28.3048 9.392 28.1448 9.664C27.9848 9.936 27.8008 10.216 27.5928 10.504C27.4488 10.712 27.2328 10.992 26.9448 11.344C26.6568 11.68 26.3608 12.024 26.0568 12.376C25.7528 12.728 25.4968 13.024 25.2888 13.264C25.4328 13.136 25.6648 12.912 25.9848 12.592C26.3208 12.256 26.5928 11.96 26.8008 11.704C26.8808 11.608 27.0008 11.456 27.1608 11.248C27.3208 11.024 27.4728 10.816 27.6168 10.624C27.7768 10.416 27.8728 10.28 27.9048 10.216C27.6968 10.648 27.4328 11.064 27.1128 11.464C26.7928 11.864 26.4728 12.224 26.1528 12.544C25.8328 12.864 25.5608 13.128 25.3368 13.336C25.1128 13.528 24.9848 13.64 24.9528 13.672C24.2808 14.376 23.6008 14.976 22.9128 15.472C22.2408 15.952 21.6648 16.192 21.1848 16.192ZM20.4168 15.376C20.4968 15.376 20.5928 15.352 20.7048 15.304C20.8808 15.208 21.1048 15.056 21.3768 14.848C21.6648 14.64 21.9608 14.424 22.2648 14.2C22.5368 13.976 22.8408 13.704 23.1768 13.384C23.5128 13.048 23.8808 12.656 24.2808 12.208C24.6328 11.808 25.0088 11.376 25.4088 10.912C25.8088 10.432 26.2008 9.936 26.5848 9.424L26.2248 9.76C26.3368 9.648 26.4728 9.496 26.6328 9.304C26.8088 9.096 26.9528 8.936 27.0648 8.824C26.5688 8.792 26.2728 8.768 26.1768 8.752C26.1608 8.784 26.1368 8.8 26.1048 8.8C26.0728 8.8 26.0568 8.744 26.0568 8.632C26.0568 8.6 26.0568 8.56 26.0568 8.512C26.0568 8.448 26.0648 8.384 26.0808 8.32C25.9208 8.304 25.7448 8.328 25.5528 8.392C25.3608 8.456 25.1448 8.592 24.9048 8.8C24.6328 9.056 24.2808 9.376 23.8488 9.76C23.4168 10.144 22.9688 10.584 22.5048 11.08C22.0408 11.56 21.6008 12.08 21.1848 12.64C20.7848 13.2 20.4648 13.792 20.2248 14.416C20.1448 14.608 20.1048 14.8 20.1048 14.992C20.1048 15.264 20.2248 15.344 20.4648 15.232C20.3848 15.28 20.3448 15.312 20.3448 15.328C20.3448 15.36 20.3688 15.376 20.4168 15.376ZM20.4648 15.232C20.7688 15.072 21.2488 14.736 21.9048 14.224C22.5768 13.696 23.2568 13.056 23.9448 12.304C24.1688 12.064 24.4248 11.792 24.7128 11.488C25.0008 11.168 25.2808 10.864 25.5528 10.576C25.8248 10.288 26.0328 10.064 26.1768 9.904C25.8088 10.352 25.4648 10.76 25.1448 11.128C24.8408 11.48 24.5448 11.816 24.2568 12.136C23.5848 12.856 22.8968 13.504 22.1928 14.08C21.5048 14.656 20.9288 15.04 20.4648 15.232ZM33.1182 16.288C32.8142 16.096 32.5502 15.864 32.3262 15.592C32.1022 15.304 32.0142 15.056 32.0622 14.848C32.0942 14.688 32.1982 14.44 32.3742 14.104C32.5662 13.768 32.7902 13.392 33.0462 12.976C33.3022 12.56 33.5582 12.136 33.8142 11.704C34.0862 11.272 34.3262 10.888 34.5342 10.552C34.5662 10.504 34.5182 10.568 34.3902 10.744C34.2782 10.904 34.1262 11.12 33.9342 11.392C33.7582 11.648 33.5822 11.912 33.4062 12.184C33.2462 12.44 33.1262 12.632 33.0462 12.76C33.0462 12.68 33.1102 12.528 33.2382 12.304C33.3822 12.08 33.5422 11.84 33.7182 11.584C33.8942 11.312 34.0622 11.056 34.2222 10.816C34.3822 10.576 34.4942 10.408 34.5582 10.312C34.1262 10.792 33.6302 11.336 33.0702 11.944C32.5102 12.536 31.9502 13.12 31.3902 13.696C30.8462 14.272 30.3582 14.776 29.9262 15.208C29.5102 15.64 29.2302 15.928 29.0862 16.072C28.6542 15.928 28.3502 15.704 28.1742 15.4C27.9982 15.096 27.9102 14.8 27.9102 14.512C27.9102 14.352 27.9342 14.2 27.9822 14.056C28.1582 13.688 28.3982 13.232 28.7022 12.688C29.0222 12.128 29.3582 11.56 29.7102 10.984C30.0622 10.408 30.3902 9.872 30.6942 9.376C30.9982 8.864 31.2302 8.472 31.3902 8.2C31.3742 8.088 31.3182 7.952 31.2222 7.792C31.1422 7.632 31.1022 7.496 31.1022 7.384C31.1022 7.256 31.2142 7.192 31.4382 7.192C31.4862 7.192 31.5422 7.192 31.6062 7.192C31.6862 7.192 31.7742 7.208 31.8702 7.24C31.9822 7.256 32.1582 7.304 32.3982 7.384C32.6382 7.464 32.8542 7.584 33.0462 7.744C33.2542 7.888 33.3582 8.088 33.3582 8.344C33.3582 8.52 33.3022 8.696 33.1902 8.872C32.9982 9.096 32.7662 9.416 32.4942 9.832C32.2382 10.248 31.9742 10.688 31.7022 11.152C31.4462 11.616 31.2062 12.048 30.9822 12.448C30.7742 12.832 30.6302 13.112 30.5502 13.288C30.6782 13.208 30.9102 13.008 31.2462 12.688C31.5822 12.368 31.9662 11.984 32.3982 11.536C32.8462 11.088 33.2942 10.64 33.7422 10.192C34.1902 9.728 34.5902 9.336 34.9422 9.016C34.9422 8.952 35.0222 8.784 35.1822 8.512C35.3582 8.224 35.5582 7.92 35.7822 7.6C36.0222 7.28 36.2222 7.048 36.3822 6.904C36.5902 6.984 36.8142 7.096 37.0542 7.24C37.3102 7.368 37.5262 7.512 37.7022 7.672C37.8942 7.816 37.9902 7.96 37.9902 8.104C37.9902 8.168 37.9662 8.24 37.9182 8.32C37.3902 9.056 36.8942 9.744 36.4302 10.384C35.9662 11.008 35.5822 11.528 35.2782 11.944C34.9742 12.36 34.7982 12.624 34.7502 12.736C34.8782 12.624 35.0222 12.504 35.1822 12.376C35.4382 12.136 35.8062 11.872 36.2862 11.584C36.8782 11.2 37.5582 10.808 38.3262 10.408C39.1102 9.992 39.9342 9.648 40.7982 9.376C40.9422 9.328 41.0542 9.304 41.1342 9.304C41.2782 9.304 41.3102 9.368 41.2302 9.496C41.1502 9.608 41.0222 9.736 40.8462 9.88C40.6862 10.024 40.5182 10.136 40.3422 10.216C39.4782 10.648 38.6622 11.112 37.8942 11.608C37.1262 12.104 36.4222 12.656 35.7822 13.264C35.3022 13.712 34.8622 14.208 34.4622 14.752C34.0622 15.28 33.6142 15.792 33.1182 16.288ZM35.0622 12.496C35.0622 12.512 35.1102 12.504 35.2062 12.472C35.3022 12.424 35.3742 12.384 35.4222 12.352C35.7582 12.096 36.1822 11.824 36.6942 11.536C37.2222 11.232 37.7342 10.952 38.2302 10.696C38.7262 10.44 39.0862 10.264 39.3102 10.168C39.4382 10.12 39.6062 10.04 39.8142 9.928C40.0382 9.816 40.1102 9.776 40.0302 9.808C39.7902 9.872 39.4542 10 39.0222 10.192C38.6062 10.368 38.1502 10.584 37.6542 10.84C37.1742 11.08 36.7182 11.328 36.2862 11.584C36.0782 11.728 35.8782 11.872 35.6862 12.016C35.5102 12.144 35.3422 12.264 35.1822 12.376C35.1502 12.408 35.1182 12.44 35.0862 12.472L35.0622 12.496ZM37.4871 24.208C37.4071 24.208 37.2711 24.136 37.0791 23.992C37.0311 23.944 36.9111 23.84 36.7191 23.68C36.5271 23.536 36.3511 23.368 36.1911 23.176C36.0151 23 35.9271 22.848 35.9271 22.72C35.9271 22.64 36.0071 22.48 36.1671 22.24C36.3271 22.016 36.5191 21.752 36.7431 21.448C37.0791 20.984 37.4871 20.424 37.9671 19.768C38.4631 19.112 38.9911 18.408 39.5511 17.656C40.1111 16.92 40.6711 16.184 41.2311 15.448C41.7911 14.696 42.3111 14 42.7911 13.36C43.2871 12.704 43.7031 12.144 44.0391 11.68C44.3911 11.2 44.6311 10.864 44.7591 10.672C44.7911 10.624 44.7351 10.688 44.5911 10.864C44.4471 11.024 44.2631 11.24 44.0391 11.512C43.8151 11.768 43.5991 12.032 43.3911 12.304C43.1991 12.56 43.0631 12.752 42.9831 12.88C42.9991 12.8 43.0951 12.64 43.2711 12.4C43.4471 12.16 43.6471 11.888 43.8711 11.584C44.1111 11.28 44.3271 11 44.5191 10.744C44.7271 10.488 44.8631 10.312 44.9271 10.216C44.4951 10.696 43.9831 11.216 43.3911 11.776C42.8151 12.32 42.2151 12.864 41.5911 13.408C40.9831 13.952 40.4151 14.464 39.8871 14.944C39.3751 15.408 38.9671 15.8 38.6631 16.12C38.2631 15.992 37.9751 15.784 37.7991 15.496C37.6391 15.192 37.5591 14.888 37.5591 14.584C37.5591 14.408 37.5831 14.248 37.6311 14.104C37.8071 13.736 38.0791 13.264 38.4471 12.688C38.8151 12.096 39.2071 11.488 39.6231 10.864C40.0391 10.24 40.4231 9.664 40.7751 9.136C41.1271 8.592 41.3831 8.184 41.5431 7.912C41.4951 7.832 41.4071 7.896 41.2791 8.104C41.1511 8.296 41.0071 8.544 40.8471 8.848C40.6871 9.136 40.5351 9.4 40.3911 9.64C40.2471 9.864 40.1511 9.968 40.1031 9.952C40.1031 9.936 40.1671 9.808 40.2951 9.568C40.4231 9.328 40.5671 9.056 40.7271 8.752C40.9031 8.432 41.0551 8.152 41.1831 7.912C41.3111 7.672 41.3751 7.544 41.3751 7.528C41.3431 7.448 41.3111 7.376 41.2791 7.312C41.2471 7.232 41.2311 7.168 41.2311 7.12C41.2311 6.96 41.3431 6.88 41.5671 6.88C41.6791 6.88 41.8311 6.904 42.0231 6.952C42.1351 6.968 42.3031 7.016 42.5271 7.096C42.7671 7.16 42.9911 7.272 43.1991 7.432C43.4071 7.592 43.5111 7.8 43.5111 8.056C43.5111 8.232 43.4551 8.408 43.3431 8.584C43.1511 8.808 42.9191 9.128 42.6471 9.544C42.3751 9.944 42.0951 10.376 41.8071 10.84C41.5191 11.288 41.2631 11.704 41.0391 12.088C40.8151 12.472 40.6551 12.752 40.5591 12.928C40.8471 12.704 41.2391 12.344 41.7351 11.848C42.2311 11.352 42.7671 10.8 43.3431 10.192C43.9191 9.568 44.4791 8.968 45.0231 8.392C45.5831 7.816 46.0631 7.352 46.4631 7C46.7031 7.096 46.9911 7.224 47.3271 7.384C47.6631 7.544 47.9351 7.712 48.1431 7.888C48.3511 8.064 48.3911 8.24 48.2631 8.416C47.7191 9.152 47.2391 9.768 46.8231 10.264C46.4071 10.76 45.9991 11.248 45.5991 11.728C45.2151 12.192 44.7671 12.76 44.2551 13.432C43.8071 14.024 43.3591 14.64 42.9111 15.28C42.4631 15.904 42.0231 16.528 41.5911 17.152C41.0631 17.92 40.5671 18.656 40.1031 19.36C39.6391 20.064 39.1991 20.728 38.7831 21.352C38.7991 21.272 38.9191 21.04 39.1431 20.656C39.3831 20.272 39.6631 19.824 39.9831 19.312C40.3031 18.816 40.6151 18.328 40.9191 17.848C41.2391 17.368 41.5031 16.968 41.7111 16.648C41.9191 16.328 42.0151 16.176 41.9991 16.192C41.9831 16.208 41.8791 16.344 41.6871 16.6C41.5111 16.856 41.2951 17.168 41.0391 17.536C40.7831 17.904 40.5431 18.264 40.3191 18.616C40.0951 18.968 39.9191 19.256 39.7911 19.48C39.5831 19.848 39.3591 20.216 39.1191 20.584C38.8951 20.952 38.7111 21.256 38.5671 21.496C38.4391 21.752 38.4071 21.896 38.4711 21.928C38.7111 21.832 38.9271 21.784 39.1191 21.784C39.3751 21.784 39.5511 21.856 39.6471 22C39.7111 22.08 39.7431 22.152 39.7431 22.216C39.7431 22.28 39.6711 22.304 39.5271 22.288C39.4311 22.272 39.2551 22.368 38.9991 22.576C38.7591 22.784 38.5511 22.992 38.3751 23.2C38.2151 23.408 38.0711 23.624 37.9431 23.848C37.8151 24.088 37.6631 24.208 37.4871 24.208ZM48.0573 16.408C47.9613 16.408 47.8093 16.296 47.6013 16.072C47.4093 15.864 47.2093 15.632 47.0013 15.376C46.8093 15.104 46.6653 14.904 46.5693 14.776C46.7133 14.152 46.9613 13.504 47.3133 12.832C47.6813 12.144 48.1053 11.472 48.5853 10.816C49.0653 10.16 49.5453 9.552 50.0253 8.992C50.5213 8.432 50.9533 7.96 51.3213 7.576C51.0493 7.784 50.7613 8.056 50.4573 8.392C50.1533 8.712 49.9453 8.928 49.8333 9.04C49.6413 9.232 49.4493 9.424 49.2573 9.616C49.0653 9.792 48.8893 9.968 48.7293 10.144C49.2093 9.552 49.6813 9.008 50.1453 8.512C50.6253 8.016 50.9693 7.688 51.1773 7.528C51.2253 7.48 51.2893 7.424 51.3693 7.36C51.4653 7.296 51.5693 7.256 51.6813 7.24L51.8733 7.024C52.3053 7.04 52.7693 7.176 53.2653 7.432C53.7613 7.672 54.1853 7.992 54.5373 8.392C54.9053 8.776 55.0973 9.216 55.1133 9.712C55.1133 9.776 55.0813 9.84 55.0173 9.904C54.9533 9.952 54.9053 9.92 54.8733 9.808C54.7613 9.568 54.6333 9.352 54.4893 9.16C54.3453 8.968 54.1853 8.816 54.0093 8.704C53.8493 8.608 53.6813 8.56 53.5053 8.56C53.3133 8.56 53.1373 8.624 52.9773 8.752C52.6573 8.992 52.2733 9.352 51.8253 9.832C51.3933 10.296 50.9533 10.8 50.5053 11.344C50.0733 11.888 49.6813 12.416 49.3293 12.928C48.9933 13.44 48.7613 13.864 48.6333 14.2C48.7293 14.088 48.8973 13.928 49.1373 13.72C49.3773 13.512 49.6333 13.304 49.9053 13.096C50.1773 12.872 50.4093 12.688 50.6013 12.544C50.6653 12.496 50.8013 12.4 51.0093 12.256C51.2173 12.112 51.4333 11.96 51.6573 11.8C51.8973 11.64 52.0893 11.52 52.2333 11.44C52.2333 11.472 52.1373 11.56 51.9453 11.704C51.7693 11.848 51.5533 12.008 51.2973 12.184C51.0413 12.36 50.8013 12.52 50.5773 12.664C50.3693 12.808 50.2413 12.904 50.1933 12.952C50.0173 13.112 49.8093 13.296 49.5693 13.504C49.3453 13.712 49.1373 13.904 48.9453 14.08C48.7533 14.256 48.6253 14.384 48.5613 14.464C48.5293 14.528 48.5213 14.568 48.5373 14.584C48.5533 14.6 48.5853 14.576 48.6333 14.512C48.7773 14.304 48.9933 14.08 49.2812 13.84C49.5693 13.6 49.8813 13.36 50.2173 13.12C50.5693 12.864 50.8813 12.632 51.1533 12.424C51.4733 12.184 51.7613 11.976 52.0173 11.8C52.2893 11.608 52.5293 11.432 52.7373 11.272C52.7533 10.936 52.8733 10.704 53.0973 10.576C53.3373 10.448 53.5213 10.408 53.6493 10.456C53.7453 10.488 53.8893 10.552 54.0813 10.648C54.2893 10.728 54.4733 10.832 54.6333 10.96C54.7933 11.072 54.8413 11.2 54.7773 11.344C54.6653 11.6 54.5773 12 54.5133 12.544C54.4653 13.072 54.4413 13.56 54.4413 14.008C54.4413 14.648 54.6413 14.968 55.0413 14.968C55.2493 14.968 55.5293 14.856 55.8813 14.632C56.0093 14.552 56.1053 14.512 56.1693 14.512C56.2173 14.512 56.2413 14.536 56.2413 14.584C56.2413 14.648 56.2013 14.744 56.1213 14.872C56.0413 14.984 55.9853 15.056 55.9533 15.088C55.7613 15.296 55.5293 15.488 55.2573 15.664C55.0013 15.824 54.7373 15.904 54.4653 15.904C54.3533 15.904 54.2413 15.888 54.1293 15.856C54.0173 15.824 53.9053 15.768 53.7933 15.688C53.3933 15.416 53.1053 15 52.9293 14.44C52.7693 13.88 52.6893 13.4 52.6893 13C52.6893 12.904 52.6893 12.816 52.6893 12.736C52.7053 12.656 52.7213 12.584 52.7373 12.52C52.5613 12.664 52.2653 12.912 51.8493 13.264C51.4493 13.6 51.0013 13.984 50.5053 14.416C50.0093 14.832 49.5373 15.224 49.0893 15.592C48.6413 15.96 48.2973 16.232 48.0573 16.408ZM65.8203 16.768C65.5643 16.768 65.3003 16.72 65.0283 16.624C64.7563 16.528 64.5323 16.376 64.3563 16.168C64.1963 15.976 64.1483 15.728 64.2123 15.424C64.2763 15.12 64.5003 14.816 64.8843 14.512C65.2683 14.192 65.7403 13.88 66.3003 13.576C66.8603 13.272 67.4363 13 68.0283 12.76C68.6363 12.52 69.2043 12.328 69.7323 12.184C70.2763 12.024 70.7003 11.936 71.0043 11.92C71.0523 11.92 71.0763 11.936 71.0763 11.968C71.0763 12.032 71.0283 12.112 70.9323 12.208C70.8363 12.304 70.7483 12.368 70.6683 12.4C70.3163 12.496 69.8603 12.656 69.3003 12.88C68.7563 13.088 68.2043 13.328 67.6443 13.6C67.1003 13.872 66.6203 14.152 66.2043 14.44C65.9643 14.6 65.7963 14.736 65.7003 14.848C65.6043 14.944 65.5563 15.024 65.5563 15.088C65.5563 15.168 65.6203 15.216 65.7483 15.232C65.8923 15.248 66.0043 15.256 66.0843 15.256C67.3163 15.208 68.5083 14.92 69.6603 14.392C70.8123 13.864 71.9003 13.184 72.9243 12.352C73.9643 11.52 74.9083 10.632 75.7563 9.688C76.6043 8.744 77.3403 7.816 77.9643 6.904C78.5883 5.992 79.0683 5.192 79.4043 4.504C79.7403 3.816 79.9083 3.328 79.9083 3.04C79.9083 2.928 79.8763 2.856 79.8123 2.824C79.3803 2.568 78.8043 2.376 78.0843 2.248C77.3803 2.104 76.6603 2.032 75.9243 2.032C74.6603 2.032 73.2923 2.208 71.8203 2.56C70.3483 2.912 68.9003 3.408 67.4763 4.048C66.0523 4.688 64.7643 5.448 63.6123 6.328C63.2283 6.632 62.8843 6.968 62.5803 7.336C62.2923 7.704 62.1003 8.12 62.0043 8.584C61.9403 8.872 61.9883 9.12 62.1483 9.328C62.3083 9.536 62.3723 9.72 62.3403 9.88C62.3403 9.96 62.3003 10 62.2203 10C62.1083 10 61.9723 9.952 61.8123 9.856C61.5563 9.648 61.3003 9.376 61.0443 9.04C60.7883 8.688 60.6603 8.288 60.6603 7.84C60.6603 7.104 61.0763 6.336 61.9083 5.536C62.7563 4.736 63.8363 3.992 65.1483 3.304C64.7483 3.48 64.3403 3.672 63.9243 3.88C63.5083 4.072 63.0843 4.28 62.6523 4.504C62.6363 4.52 62.6203 4.528 62.6043 4.528C62.5883 4.528 62.5803 4.528 62.5803 4.528C62.5483 4.528 62.5723 4.496 62.6523 4.432C62.7483 4.368 62.8363 4.312 62.9163 4.264C63.8603 3.736 64.8043 3.28 65.7483 2.896C66.6923 2.496 67.6203 2.144 68.5323 1.84C67.9243 2.048 67.3323 2.28 66.7563 2.536C66.1963 2.776 65.6603 3.032 65.1483 3.304C67.2763 2.36 69.2523 1.704 71.0763 1.336C72.9003 0.968 74.7323 0.776 76.5723 0.759999C76.7003 0.759999 76.7883 0.759999 76.8363 0.759999C76.8843 0.743999 76.9083 0.735999 76.9083 0.735999C76.9083 0.704 76.8443 0.679999 76.7163 0.663999C76.5883 0.647999 76.4603 0.639999 76.3323 0.639999C75.2763 0.623999 74.1003 0.703999 72.8043 0.879999C71.5243 1.04 70.1883 1.328 68.7963 1.744C69.8683 1.408 70.9563 1.128 72.0603 0.904C73.1643 0.68 74.2523 0.536 75.3243 0.472C75.4683 0.456 75.6123 0.448 75.7563 0.448C75.9163 0.448 76.0683 0.448 76.2123 0.448C77.0443 0.448 77.8283 0.528 78.5643 0.688C79.3003 0.848 79.9003 1.136 80.3643 1.552C80.8443 1.952 81.0843 2.52 81.0843 3.256C81.3563 3.592 81.4923 4.024 81.4923 4.552C81.4923 5.128 81.3163 5.784 80.9643 6.52C80.6123 7.24 80.1243 7.992 79.5003 8.776C78.8923 9.56 78.1723 10.336 77.3403 11.104C78.1403 10.336 78.8443 9.536 79.4523 8.704C80.0763 7.872 80.6443 6.896 81.1563 5.776C80.7243 6.656 80.1963 7.488 79.5723 8.272C78.9483 9.04 78.3163 9.736 77.6763 10.36C77.0523 10.968 76.4843 11.488 75.9723 11.92C75.4763 12.336 75.1243 12.632 74.9163 12.808C74.5163 13.16 74.0683 13.488 73.5723 13.792C73.0763 14.08 72.6123 14.336 72.1803 14.56C71.7483 14.768 71.4043 14.944 71.1483 15.088C70.7963 15.264 70.4603 15.44 70.1403 15.616C69.8363 15.792 69.5723 15.944 69.3483 16.072C70.6123 15.64 71.8683 15.048 73.1163 14.296C74.3803 13.528 75.5403 12.688 76.5963 11.776C76.0203 12.304 75.4283 12.824 74.8203 13.336C74.5003 13.608 74.0523 13.896 73.4763 14.2C72.9163 14.504 72.3163 14.8 71.6763 15.088C71.0523 15.376 70.4843 15.632 69.9723 15.856C69.4603 16.08 69.1003 16.24 68.8923 16.336C68.8603 16.352 68.8843 16.336 68.9643 16.288C69.0603 16.24 69.1883 16.168 69.3483 16.072C68.7563 16.28 68.1563 16.448 67.5483 16.576C66.9563 16.704 66.3803 16.768 65.8203 16.768ZM61.5003 18.064C61.1963 17.808 60.9723 17.552 60.8283 17.296C60.7003 17.056 60.6363 16.824 60.6363 16.6C60.6363 16.472 60.6603 16.336 60.7083 16.192C60.8363 15.824 61.0923 15.344 61.4763 14.752C61.8763 14.144 62.3563 13.472 62.9163 12.736C63.4923 12 64.1003 11.24 64.7403 10.456C65.3963 9.672 66.0363 8.912 66.6603 8.176C67.2843 7.424 67.8523 6.752 68.3643 6.16C68.8923 5.552 69.3083 5.064 69.6123 4.696C69.4843 4.76 69.3803 4.792 69.3003 4.792C69.2363 4.792 69.2043 4.768 69.2043 4.72C69.2043 4.656 69.2523 4.576 69.3483 4.48C69.5243 4.256 69.6763 4.072 69.8043 3.928C69.9323 3.768 69.9963 3.688 69.9963 3.688C70.0923 3.656 70.2523 3.696 70.4763 3.808C70.7163 3.904 70.9643 4.04 71.2203 4.216C71.4763 4.376 71.6843 4.552 71.8443 4.744C72.0203 4.92 72.0763 5.072 72.0123 5.2C71.4683 5.728 70.8523 6.344 70.1643 7.048C69.4763 7.752 68.7563 8.512 68.0043 9.328C67.2523 10.144 66.5083 10.984 65.7723 11.848C65.0363 12.696 64.3483 13.536 63.7083 14.368C63.0683 15.2 62.5163 15.976 62.0523 16.696L62.3403 16.36L64.3803 13.936C64.5083 13.792 64.6043 13.696 64.6683 13.648C64.7323 13.584 64.7723 13.552 64.7883 13.552C64.8043 13.552 64.8123 13.56 64.8123 13.576C64.8123 13.624 64.7643 13.696 64.6683 13.792C64.3163 14.224 63.9323 14.696 63.5163 15.208C63.1163 15.704 62.7323 16.2 62.3643 16.696C61.9963 17.192 61.7083 17.648 61.5003 18.064ZM80.6378 16.168C80.2858 16.168 79.9098 16.032 79.5098 15.76C79.1098 15.488 78.7658 15.168 78.4778 14.8C78.2058 14.432 78.0698 14.096 78.0698 13.792C78.0698 13.216 78.2378 12.6 78.5738 11.944C78.9258 11.272 79.3738 10.616 79.9178 9.976C80.4778 9.336 81.0698 8.768 81.6938 8.272C82.3178 7.776 82.9178 7.416 83.4938 7.192C83.6538 7.128 83.7978 7.088 83.9258 7.072C84.0538 7.056 84.1498 7.048 84.2138 7.048C84.4058 7.048 84.6298 7.184 84.8858 7.456C85.1418 7.712 85.3738 7.992 85.5818 8.296C85.7898 8.6 85.9098 8.832 85.9418 8.992C85.9418 9.248 85.7898 9.56 85.4858 9.928C85.1978 10.28 84.8138 10.648 84.3338 11.032C83.8538 11.4 83.3338 11.744 82.7738 12.064C82.2298 12.384 81.7018 12.64 81.1898 12.832C80.6778 13.008 80.2378 13.088 79.8698 13.072C79.6138 13.536 79.4858 13.92 79.4858 14.224C79.4858 14.384 79.5258 14.528 79.6058 14.656C79.6858 14.768 79.8458 14.816 80.0858 14.8C80.4698 14.672 80.9498 14.44 81.5258 14.104C82.1018 13.768 82.7178 13.392 83.3738 12.976C84.0458 12.544 84.7018 12.128 85.3418 11.728C85.9978 11.312 86.5818 10.968 87.0938 10.696C87.3658 10.552 87.5658 10.48 87.6938 10.48C87.8058 10.48 87.8618 10.52 87.8618 10.6C87.8618 10.664 87.7898 10.768 87.6458 10.912C87.5178 11.056 87.3178 11.2 87.0458 11.344C86.9018 11.424 86.7418 11.52 86.5658 11.632C86.3898 11.744 86.2058 11.872 86.0138 12.016C85.5658 12.336 85.0858 12.704 84.5738 13.12C84.0778 13.536 83.5738 13.952 83.0618 14.368C82.5658 14.784 82.1018 15.152 81.6698 15.472C81.2538 15.792 80.9098 16.024 80.6378 16.168ZM80.3738 12.28C80.8538 12.104 81.3658 11.856 81.9098 11.536C82.4538 11.216 82.9658 10.88 83.4458 10.528C83.9258 10.16 84.3098 9.832 84.5978 9.544L84.7178 9.424C84.7178 9.392 84.6218 9.448 84.4298 9.592L82.4138 11.08C82.3978 11.096 82.3738 11.104 82.3418 11.104C82.3258 11.104 82.3338 11.088 82.3658 11.056C82.3978 11.008 82.4538 10.96 82.5338 10.912C82.8538 10.688 83.1818 10.44 83.5178 10.168C83.8538 9.88 84.1738 9.608 84.4778 9.352C84.8618 9.048 85.0538 8.864 85.0538 8.8C84.6858 8.8 84.2138 8.976 83.6378 9.328C83.0618 9.68 82.4778 10.12 81.8858 10.648C81.3098 11.176 80.8058 11.72 80.3738 12.28ZM91.2878 16.12C91.1278 16.12 90.9518 16.056 90.7598 15.928C90.5838 15.8 90.4238 15.664 90.2798 15.52C90.1518 15.36 90.0878 15.224 90.0878 15.112C90.0878 15.016 90.1118 14.968 90.1598 14.968C90.1918 14.968 90.2398 14.984 90.3038 15.016C90.3678 15.032 90.4398 15.056 90.5198 15.088C90.4718 14.976 90.4318 14.872 90.3998 14.776C90.3678 14.68 90.3518 14.584 90.3518 14.488C90.3518 14.472 90.4318 14.312 90.5918 14.008C90.7518 13.688 90.9518 13.304 91.1918 12.856C91.4318 12.408 91.6798 11.952 91.9358 11.488C92.1918 11.008 92.4158 10.592 92.6078 10.24C92.7998 9.888 92.9198 9.656 92.9678 9.544L92.9198 9.616C92.8398 9.744 92.7118 9.952 92.5358 10.24C92.3598 10.512 92.1758 10.8 91.9838 11.104C91.7918 11.408 91.6318 11.664 91.5038 11.872C91.3758 12.08 91.3118 12.176 91.3118 12.16C91.3918 11.92 91.4958 11.656 91.6238 11.368C91.7518 11.08 91.9198 10.744 92.1278 10.36C91.5038 10.968 90.8318 11.624 90.1118 12.328C89.4078 13.032 88.7598 13.712 88.1678 14.368C87.5758 15.008 87.1278 15.552 86.8238 16C86.4718 15.696 86.2238 15.416 86.0798 15.16C85.9518 14.904 85.8878 14.656 85.8878 14.416C85.8878 14.32 85.9038 14.224 85.9358 14.128C85.9518 14.032 85.9678 13.936 85.9838 13.84C86.0798 13.504 86.3278 13 86.7278 12.328C87.1438 11.656 87.6478 10.888 88.2398 10.024C88.8318 9.16 89.4638 8.264 90.1358 7.336C90.8078 6.408 91.4558 5.52 92.0798 4.672C92.7038 3.824 93.2558 3.08 93.7358 2.44C94.2158 1.8 94.5518 1.344 94.7438 1.072C94.7438 1.056 94.7358 1.048 94.7198 1.048C94.7038 1.048 94.6638 1.072 94.5998 1.12C94.5358 1.168 94.4398 1.272 94.3118 1.432C93.9598 1.88 93.5998 2.336 93.2318 2.8C92.8638 3.264 92.5278 3.688 92.2238 4.072C91.9198 4.456 91.6718 4.76 91.4798 4.984C91.2878 5.208 91.1918 5.312 91.1918 5.296C91.1918 5.28 91.3038 5.104 91.5278 4.768C91.7678 4.432 92.0558 4.024 92.3918 3.544C92.7438 3.064 93.0958 2.584 93.4478 2.104C93.7998 1.624 94.0958 1.224 94.3358 0.904C94.5758 0.583999 94.7038 0.423999 94.7198 0.423999H94.7438C94.8078 0.423999 94.8878 0.447999 94.9838 0.495999C95.0958 0.544 95.1838 0.584 95.2478 0.615999C95.3758 0.647999 95.5518 0.759999 95.7758 0.951999C96.0158 1.144 96.2158 1.36 96.3758 1.6C96.5518 1.824 96.6078 2.024 96.5438 2.2C96.3518 2.392 96.0478 2.728 95.6318 3.208C95.2158 3.688 94.7198 4.256 94.1438 4.912C93.5838 5.568 92.9918 6.272 92.3678 7.024C91.7438 7.76 91.1278 8.496 90.5198 9.232C89.9118 9.952 89.3518 10.624 88.8398 11.248C88.3278 11.856 87.9118 12.368 87.5918 12.784C87.2718 13.2 87.0878 13.456 87.0398 13.552C87.1838 13.472 87.4638 13.264 87.8798 12.928C88.3118 12.592 88.8078 12.184 89.3678 11.704C89.9438 11.208 90.5358 10.688 91.1438 10.144C91.7518 9.6 92.3198 9.072 92.8478 8.56C93.3758 8.048 93.8078 7.616 94.1438 7.264L94.4318 6.88C94.6398 6.96 94.8638 7.072 95.1038 7.216C95.3598 7.344 95.5758 7.488 95.7518 7.648C95.9438 7.792 96.0398 7.944 96.0398 8.104C96.0398 8.152 96.0158 8.216 95.9678 8.296C95.1838 9.4 94.5438 10.304 94.0478 11.008C93.5518 11.696 93.2638 12.12 93.1838 12.28C93.3758 12.184 93.6478 12.024 93.9998 11.8C94.3518 11.56 94.7518 11.304 95.1998 11.032C95.7118 10.712 96.2398 10.384 96.7838 10.048C97.3438 9.712 97.8958 9.432 98.4398 9.208C98.5678 9.16 98.5678 9.184 98.4398 9.28C98.3278 9.376 98.1678 9.496 97.9598 9.64C97.7518 9.768 97.5758 9.872 97.4318 9.952C97.6878 9.824 97.9038 9.728 98.0798 9.664C98.2718 9.584 98.5198 9.48 98.8238 9.352C98.9678 9.288 99.0878 9.256 99.1838 9.256C99.2958 9.256 99.3118 9.312 99.2318 9.424C99.1518 9.536 99.0238 9.672 98.8478 9.832C98.6878 9.976 98.5278 10.096 98.3678 10.192C98.1758 10.304 97.8238 10.544 97.3118 10.912C96.7998 11.28 96.2238 11.704 95.5838 12.184C94.9598 12.648 94.3678 13.104 93.8078 13.552C93.5358 13.76 93.2798 13.976 93.0398 14.2C92.7998 14.424 92.5838 14.632 92.3918 14.824C92.4558 14.84 92.5198 14.88 92.5838 14.944C92.6638 15.008 92.7038 15.08 92.7038 15.16C92.7038 15.272 92.6078 15.408 92.4158 15.568C92.2238 15.712 92.0158 15.84 91.7918 15.952C91.5678 16.064 91.3998 16.12 91.2878 16.12ZM93.0158 12.784C93.2238 12.608 93.5598 12.368 94.0238 12.064C94.5038 11.744 95.0158 11.408 95.5598 11.056C96.1198 10.704 96.6078 10.408 97.0238 10.168C96.6718 10.328 96.2878 10.528 95.8718 10.768C95.4558 10.992 95.1118 11.192 94.8398 11.368C94.4398 11.624 94.1038 11.84 93.8318 12.016C93.5598 12.176 93.3358 12.344 93.1598 12.52C93.1118 12.552 93.0638 12.616 93.0158 12.712C92.9678 12.792 92.9678 12.816 93.0158 12.784ZM92.9526 24.616C92.8726 24.616 92.7446 24.576 92.5686 24.496C92.3766 24.416 92.2086 24.304 92.0646 24.16C91.9046 24.032 91.8246 23.888 91.8246 23.728C91.8246 23.632 91.8486 23.536 91.8966 23.44L91.9446 23.344C91.7046 23.088 91.5046 22.808 91.3446 22.504C91.1846 22.216 91.1046 21.944 91.1046 21.688C91.1046 21.576 91.1126 21.496 91.1286 21.448C91.5606 20.808 92.2086 20.128 93.0726 19.408C93.9206 18.704 94.8966 18.032 96.0006 17.392C97.1206 16.752 98.2726 16.208 99.4566 15.76C99.6006 15.616 99.8326 15.336 100.153 14.92C100.473 14.504 100.809 14.04 101.161 13.528C101.529 13 101.849 12.504 102.121 12.04C102.409 11.576 102.585 11.232 102.649 11.008C102.441 11.12 102.153 11.352 101.785 11.704C101.433 12.04 101.049 12.432 100.633 12.88C100.217 13.312 99.8006 13.752 99.3846 14.2C98.9686 14.648 98.5846 15.056 98.2326 15.424C97.8966 15.776 97.6246 16.024 97.4166 16.168C97.3206 16.168 97.1606 16.056 96.9366 15.832C96.7286 15.608 96.5126 15.352 96.2886 15.064C96.0806 14.776 95.9206 14.56 95.8086 14.416C95.8566 13.888 96.0326 13.328 96.3366 12.736C96.6406 12.144 97.0166 11.552 97.4646 10.96C97.9286 10.368 98.4006 9.808 98.8806 9.28C99.3766 8.736 99.8406 8.248 100.273 7.816C100.721 7.384 101.081 7.04 101.353 6.784C101.817 6.8 102.281 6.872 102.745 7C103.209 7.112 103.593 7.304 103.897 7.576C104.217 7.832 104.377 8.184 104.377 8.632C104.377 8.776 104.353 8.936 104.305 9.112C104.273 9.272 104.209 9.448 104.113 9.64C104.257 9.72 104.377 9.808 104.473 9.904C104.569 10 104.609 10.12 104.593 10.264C104.545 10.648 104.393 11.08 104.137 11.56C103.881 12.04 103.585 12.512 103.249 12.976C102.913 13.44 102.601 13.848 102.313 14.2C102.041 14.536 101.865 14.76 101.785 14.872C102.009 14.776 102.185 14.72 102.313 14.704C102.457 14.672 102.641 14.64 102.865 14.608C102.929 14.592 102.985 14.584 103.033 14.584C103.081 14.584 103.121 14.584 103.153 14.584C103.281 14.584 103.345 14.616 103.345 14.68C103.345 14.744 103.297 14.816 103.201 14.896C103.105 14.976 103.017 15.032 102.937 15.064C102.873 15.096 102.729 15.168 102.505 15.28C102.281 15.392 102.033 15.52 101.761 15.664C101.505 15.792 101.273 15.912 101.065 16.024C100.745 16.456 100.345 16.968 99.8646 17.56C99.3846 18.152 98.8646 18.768 98.3046 19.408C97.7446 20.064 97.1606 20.696 96.5526 21.304C95.9606 21.928 95.3766 22.48 94.8006 22.96C94.9126 22.96 95.0006 22.984 95.0646 23.032C95.1446 23.064 95.1046 23.16 94.9446 23.32C94.7846 23.496 94.5766 23.68 94.3206 23.872C94.0486 24.08 93.7846 24.256 93.5286 24.4C93.2726 24.544 93.0806 24.616 92.9526 24.616ZM97.7286 14.536C97.9046 14.312 98.1526 14.032 98.4726 13.696C98.7926 13.36 99.0566 13.096 99.2646 12.904L98.2806 14.248C98.2646 14.264 98.2566 14.28 98.2566 14.296C98.2566 14.312 98.2886 14.304 98.3526 14.272C98.4166 14.224 98.4646 14.176 98.4966 14.128C98.7046 13.856 98.9526 13.528 99.2406 13.144C99.5446 12.76 99.8646 12.392 100.201 12.04C100.057 12.168 99.9126 12.296 99.7686 12.424C99.6246 12.536 99.4886 12.656 99.3606 12.784C99.8886 12.144 100.425 11.56 100.969 11.032C101.529 10.504 101.913 10.144 102.121 9.952C102.185 9.904 102.265 9.848 102.361 9.784C102.457 9.704 102.577 9.656 102.721 9.64C102.753 9.624 102.785 9.632 102.817 9.664C102.865 9.68 102.881 9.696 102.865 9.712C102.913 9.68 102.953 9.656 102.985 9.64C103.033 9.624 103.065 9.616 103.081 9.616C103.209 9.584 103.345 9.544 103.489 9.496C103.649 9.448 103.729 9.424 103.729 9.424C103.777 9.248 103.761 9.056 103.681 8.848C103.601 8.64 103.497 8.448 103.369 8.272C103.241 8.08 103.137 7.952 103.057 7.888C102.737 8.176 102.361 8.536 101.929 8.968C101.497 9.4 101.041 9.872 100.561 10.384C100.097 10.896 99.6566 11.416 99.2406 11.944C98.8406 12.456 98.4966 12.936 98.2086 13.384C97.9366 13.832 97.7766 14.216 97.7286 14.536ZM101.137 11.104C101.457 10.8 101.769 10.528 102.073 10.288C102.377 10.048 102.617 9.864 102.793 9.736C102.617 9.768 102.361 9.936 102.025 10.24C101.689 10.544 101.393 10.832 101.137 11.104ZM92.9286 23.56C93.2966 23.192 93.7286 22.736 94.2246 22.192C94.7206 21.664 95.2246 21.104 95.7366 20.512C96.2646 19.92 96.7606 19.352 97.2246 18.808C97.6886 18.28 98.0886 17.832 98.4246 17.464C98.2006 17.512 97.8566 17.68 97.3926 17.968C96.9446 18.256 96.4486 18.616 95.9046 19.048C95.3766 19.48 94.8726 19.944 94.3926 20.44C93.8966 20.936 93.4966 21.408 93.1926 21.856C92.8726 22.32 92.7126 22.72 92.7126 23.056C92.7126 23.264 92.7846 23.432 92.9286 23.56ZM109.335 16.12C109.175 16.12 108.999 16.056 108.807 15.928C108.631 15.8 108.471 15.664 108.327 15.52C108.199 15.36 108.135 15.224 108.135 15.112C108.135 15.016 108.159 14.968 108.207 14.968C108.239 14.968 108.287 14.984 108.351 15.016C108.415 15.032 108.487 15.056 108.567 15.088C108.519 14.976 108.479 14.872 108.447 14.776C108.415 14.68 108.399 14.584 108.399 14.488C108.399 14.472 108.479 14.312 108.639 14.008C108.799 13.688 108.999 13.304 109.239 12.856C109.479 12.408 109.727 11.952 109.983 11.488C110.239 11.008 110.463 10.592 110.655 10.24C110.847 9.888 110.967 9.656 111.015 9.544L110.967 9.616C110.887 9.744 110.759 9.952 110.583 10.24C110.407 10.512 110.223 10.8 110.031 11.104C109.839 11.408 109.679 11.664 109.551 11.872C109.423 12.08 109.359 12.176 109.359 12.16C109.439 11.92 109.543 11.656 109.671 11.368C109.799 11.08 109.967 10.744 110.175 10.36C109.551 10.968 108.879 11.624 108.159 12.328C107.455 13.032 106.807 13.712 106.215 14.368C105.623 15.008 105.175 15.552 104.871 16C104.519 15.696 104.271 15.416 104.127 15.16C103.999 14.904 103.935 14.656 103.935 14.416C103.935 14.32 103.951 14.224 103.983 14.128C103.999 14.032 104.015 13.936 104.031 13.84C104.127 13.504 104.375 13 104.775 12.328C105.191 11.656 105.695 10.888 106.287 10.024C106.879 9.16 107.511 8.264 108.183 7.336C108.855 6.408 109.503 5.52 110.127 4.672C110.751 3.824 111.303 3.08 111.783 2.44C112.263 1.8 112.599 1.344 112.791 1.072C112.791 1.056 112.783 1.048 112.767 1.048C112.751 1.048 112.711 1.072 112.647 1.12C112.583 1.168 112.487 1.272 112.359 1.432C112.007 1.88 111.647 2.336 111.279 2.8C110.911 3.264 110.575 3.688 110.271 4.072C109.967 4.456 109.719 4.76 109.527 4.984C109.335 5.208 109.239 5.312 109.239 5.296C109.239 5.28 109.351 5.104 109.575 4.768C109.815 4.432 110.103 4.024 110.439 3.544C110.791 3.064 111.143 2.584 111.495 2.104C111.847 1.624 112.143 1.224 112.383 0.904C112.623 0.583999 112.751 0.423999 112.767 0.423999H112.791C112.855 0.423999 112.935 0.447999 113.031 0.495999C113.143 0.544 113.231 0.584 113.295 0.615999C113.423 0.647999 113.599 0.759999 113.823 0.951999C114.063 1.144 114.263 1.36 114.423 1.6C114.599 1.824 114.655 2.024 114.591 2.2C114.399 2.392 114.095 2.728 113.679 3.208C113.263 3.688 112.767 4.256 112.191 4.912C111.631 5.568 111.039 6.272 110.415 7.024C109.791 7.76 109.175 8.496 108.567 9.232C107.959 9.952 107.399 10.624 106.887 11.248C106.375 11.856 105.959 12.368 105.639 12.784C105.319 13.2 105.135 13.456 105.087 13.552C105.231 13.472 105.511 13.264 105.927 12.928C106.359 12.592 106.855 12.184 107.415 11.704C107.991 11.208 108.583 10.688 109.191 10.144C109.799 9.6 110.367 9.072 110.895 8.56C111.423 8.048 111.855 7.616 112.191 7.264L112.479 6.88C112.687 6.96 112.911 7.072 113.151 7.216C113.407 7.344 113.623 7.488 113.799 7.648C113.991 7.792 114.087 7.944 114.087 8.104C114.087 8.152 114.063 8.216 114.015 8.296C113.231 9.4 112.591 10.304 112.095 11.008C111.599 11.696 111.311 12.12 111.231 12.28C111.423 12.184 111.695 12.024 112.047 11.8C112.399 11.56 112.799 11.304 113.247 11.032C113.759 10.712 114.287 10.384 114.831 10.048C115.391 9.712 115.943 9.432 116.487 9.208C116.615 9.16 116.615 9.184 116.487 9.28C116.375 9.376 116.215 9.496 116.007 9.64C115.799 9.768 115.623 9.872 115.479 9.952C115.735 9.824 115.951 9.728 116.127 9.664C116.319 9.584 116.567 9.48 116.871 9.352C117.015 9.288 117.135 9.256 117.231 9.256C117.343 9.256 117.359 9.312 117.279 9.424C117.199 9.536 117.071 9.672 116.895 9.832C116.735 9.976 116.575 10.096 116.415 10.192C116.223 10.304 115.871 10.544 115.359 10.912C114.847 11.28 114.271 11.704 113.631 12.184C113.007 12.648 112.415 13.104 111.855 13.552C111.583 13.76 111.327 13.976 111.087 14.2C110.847 14.424 110.631 14.632 110.439 14.824C110.503 14.84 110.567 14.88 110.631 14.944C110.711 15.008 110.751 15.08 110.751 15.16C110.751 15.272 110.655 15.408 110.463 15.568C110.271 15.712 110.063 15.84 109.839 15.952C109.615 16.064 109.447 16.12 109.335 16.12ZM111.063 12.784C111.271 12.608 111.607 12.368 112.071 12.064C112.551 11.744 113.063 11.408 113.607 11.056C114.167 10.704 114.655 10.408 115.071 10.168C114.719 10.328 114.335 10.528 113.919 10.768C113.503 10.992 113.159 11.192 112.887 11.368C112.487 11.624 112.151 11.84 111.879 12.016C111.607 12.176 111.383 12.344 111.207 12.52C111.159 12.552 111.111 12.616 111.063 12.712C111.015 12.792 111.015 12.816 111.063 12.784ZM114.576 16C114.304 15.968 114.088 15.816 113.928 15.544C113.768 15.256 113.688 14.984 113.688 14.728C113.688 14.52 113.816 14.184 114.072 13.72C114.328 13.24 114.648 12.704 115.032 12.112C115.432 11.504 115.84 10.904 116.256 10.312C116.688 9.72 117.072 9.2 117.408 8.752C117.744 8.288 117.976 7.968 118.104 7.792C117.704 8.24 117.376 8.616 117.12 8.92C116.88 9.208 116.744 9.352 116.712 9.352C116.696 9.352 116.824 9.144 117.096 8.728C117.384 8.312 117.872 7.6 118.56 6.592C118.72 6.592 118.92 6.664 119.16 6.808C119.4 6.952 119.616 7.12 119.808 7.312C120.016 7.488 120.12 7.656 120.12 7.816C119.976 8.04 119.76 8.336 119.472 8.704C119.184 9.072 118.856 9.464 118.488 9.88C118.12 10.296 117.768 10.704 117.432 11.104C117.096 11.488 116.808 11.824 116.568 12.112C116.616 12.064 116.8 11.912 117.12 11.656C117.44 11.4 117.84 11.08 118.32 10.696C118.8 10.296 119.304 9.888 119.832 9.472C120.376 9.04 120.896 8.64 121.392 8.272C121.888 7.888 122.312 7.576 122.664 7.336C123.016 7.096 123.24 6.976 123.336 6.976C123.416 6.976 123.528 7.04 123.672 7.168C123.816 7.296 123.96 7.456 124.104 7.648C124.264 7.824 124.384 8 124.464 8.176C124.544 8.336 124.552 8.448 124.488 8.512C124.392 8.608 124.16 8.848 123.792 9.232C123.44 9.616 123.024 10.072 122.544 10.6C122.08 11.128 121.632 11.656 121.2 12.184C120.784 12.696 120.464 13.136 120.24 13.504L121.92 12.448C122.048 12.368 122.048 12.376 121.92 12.472C121.792 12.568 121.632 12.688 121.44 12.832C121.248 12.976 121.104 13.088 121.008 13.168C120.96 13.216 120.904 13.296 120.84 13.408C120.776 13.504 120.768 13.528 120.816 13.48C121.056 13.272 121.36 13.04 121.728 12.784C122.096 12.528 122.48 12.272 122.88 12.016C123.296 11.744 123.664 11.504 123.984 11.296C123.696 11.44 123.416 11.584 123.144 11.728C122.872 11.872 122.584 12.04 122.28 12.232L122.616 11.992C122.76 11.88 122.968 11.744 123.24 11.584C123.512 11.424 123.784 11.272 124.056 11.128C124.344 10.984 124.56 10.888 124.704 10.84L124.008 11.296C124.184 11.216 124.368 11.136 124.56 11.056C124.752 10.96 124.952 10.864 125.16 10.768C125.288 10.72 125.376 10.696 125.424 10.696C125.568 10.696 125.576 10.784 125.448 10.96C125.336 11.136 125.168 11.288 124.944 11.416C124.592 11.592 124.176 11.864 123.696 12.232C123.216 12.6 122.712 13.008 122.184 13.456C121.672 13.904 121.176 14.352 120.696 14.8C120.216 15.232 119.808 15.616 119.472 15.952C119.136 15.68 118.96 15.408 118.944 15.136C118.928 14.864 118.92 14.624 118.92 14.416V14.32C118.92 14.272 118.92 14.216 118.92 14.152C118.936 14.072 118.968 13.984 119.016 13.888C119 13.808 118.936 13.752 118.824 13.72C118.712 13.672 118.664 13.616 118.68 13.552C118.744 13.248 118.896 12.896 119.136 12.496C119.376 12.096 119.648 11.68 119.952 11.248C120.272 10.816 120.592 10.4 120.912 10C121.232 9.6 121.504 9.256 121.728 8.968C121.952 8.68 122.096 8.48 122.16 8.368C121.984 8.528 121.688 8.8 121.272 9.184C120.856 9.552 120.376 9.984 119.832 10.48C119.304 10.96 118.752 11.472 118.176 12.016C117.6 12.56 117.056 13.096 116.544 13.624C116.032 14.136 115.6 14.6 115.248 15.016C114.896 15.432 114.672 15.76 114.576 16ZM125.167 16.408C125.071 16.408 124.919 16.296 124.711 16.072C124.519 15.864 124.319 15.632 124.111 15.376C123.919 15.104 123.775 14.904 123.679 14.776C123.823 14.152 124.071 13.504 124.423 12.832C124.791 12.144 125.215 11.472 125.695 10.816C126.175 10.16 126.655 9.552 127.135 8.992C127.631 8.432 128.063 7.96 128.431 7.576C128.159 7.784 127.871 8.056 127.567 8.392C127.263 8.712 127.055 8.928 126.943 9.04C126.751 9.232 126.559 9.424 126.367 9.616C126.175 9.792 125.999 9.968 125.839 10.144C126.319 9.552 126.791 9.008 127.255 8.512C127.735 8.016 128.079 7.688 128.287 7.528C128.335 7.48 128.399 7.424 128.479 7.36C128.575 7.296 128.679 7.256 128.791 7.24L128.983 7.024C129.415 7.04 129.879 7.176 130.375 7.432C130.871 7.672 131.295 7.992 131.647 8.392C132.015 8.776 132.207 9.216 132.223 9.712C132.223 9.776 132.191 9.84 132.127 9.904C132.063 9.952 132.015 9.92 131.983 9.808C131.871 9.568 131.743 9.352 131.599 9.16C131.455 8.968 131.295 8.816 131.119 8.704C130.959 8.608 130.791 8.56 130.615 8.56C130.423 8.56 130.247 8.624 130.087 8.752C129.767 8.992 129.383 9.352 128.935 9.832C128.503 10.296 128.063 10.8 127.615 11.344C127.183 11.888 126.791 12.416 126.439 12.928C126.103 13.44 125.871 13.864 125.743 14.2C125.839 14.088 126.007 13.928 126.247 13.72C126.487 13.512 126.743 13.304 127.015 13.096C127.287 12.872 127.519 12.688 127.711 12.544C127.775 12.496 127.911 12.4 128.119 12.256C128.327 12.112 128.543 11.96 128.767 11.8C129.007 11.64 129.199 11.52 129.343 11.44C129.343 11.472 129.247 11.56 129.055 11.704C128.879 11.848 128.663 12.008 128.407 12.184C128.151 12.36 127.911 12.52 127.687 12.664C127.479 12.808 127.351 12.904 127.303 12.952C127.127 13.112 126.919 13.296 126.679 13.504C126.455 13.712 126.247 13.904 126.055 14.08C125.863 14.256 125.735 14.384 125.671 14.464C125.639 14.528 125.631 14.568 125.647 14.584C125.663 14.6 125.695 14.576 125.743 14.512C125.887 14.304 126.103 14.08 126.391 13.84C126.679 13.6 126.991 13.36 127.327 13.12C127.679 12.864 127.991 12.632 128.263 12.424C128.583 12.184 128.871 11.976 129.127 11.8C129.399 11.608 129.639 11.432 129.847 11.272C129.863 10.936 129.983 10.704 130.207 10.576C130.447 10.448 130.631 10.408 130.759 10.456C130.855 10.488 130.999 10.552 131.191 10.648C131.399 10.728 131.583 10.832 131.743 10.96C131.903 11.072 131.951 11.2 131.887 11.344C131.775 11.6 131.687 12 131.623 12.544C131.575 13.072 131.551 13.56 131.551 14.008C131.551 14.648 131.751 14.968 132.151 14.968C132.359 14.968 132.639 14.856 132.991 14.632C133.119 14.552 133.215 14.512 133.279 14.512C133.327 14.512 133.351 14.536 133.351 14.584C133.351 14.648 133.311 14.744 133.231 14.872C133.151 14.984 133.095 15.056 133.063 15.088C132.871 15.296 132.639 15.488 132.367 15.664C132.111 15.824 131.847 15.904 131.575 15.904C131.463 15.904 131.351 15.888 131.239 15.856C131.127 15.824 131.015 15.768 130.903 15.688C130.503 15.416 130.215 15 130.039 14.44C129.879 13.88 129.799 13.4 129.799 13C129.799 12.904 129.799 12.816 129.799 12.736C129.815 12.656 129.831 12.584 129.847 12.52C129.671 12.664 129.375 12.912 128.959 13.264C128.559 13.6 128.111 13.984 127.615 14.416C127.119 14.832 126.647 15.224 126.199 15.592C125.751 15.96 125.407 16.232 125.167 16.408ZM139.404 6.16C139.196 6.064 138.98 5.88 138.756 5.608C138.532 5.336 138.42 5.104 138.42 4.912C138.42 4.752 138.492 4.672 138.636 4.672C138.716 4.672 138.812 4.688 138.924 4.72C139.036 4.736 139.148 4.744 139.26 4.744C139.404 4.744 139.564 4.696 139.74 4.6C139.916 4.488 140.092 4.432 140.268 4.432C140.492 4.432 140.668 4.584 140.796 4.888C140.844 4.968 140.804 5.08 140.676 5.224C140.548 5.368 140.396 5.504 140.22 5.632C140.06 5.76 139.924 5.856 139.812 5.92C139.892 5.92 140.02 5.864 140.196 5.752C140.372 5.624 140.516 5.504 140.628 5.392C140.42 5.648 140.18 5.848 139.908 5.992C139.636 6.12 139.468 6.176 139.404 6.16ZM134.196 15.928C133.908 15.672 133.708 15.464 133.596 15.304C133.5 15.128 133.452 14.968 133.452 14.824C133.452 14.712 133.468 14.6 133.5 14.488C133.548 14.376 133.588 14.256 133.62 14.128C133.796 13.536 134.084 12.896 134.484 12.208C134.884 11.52 135.316 10.848 135.78 10.192C136.26 9.52 136.684 8.928 137.052 8.416C137.02 8.384 137.004 8.288 137.004 8.128C137.004 7.904 137.044 7.656 137.124 7.384C137.22 7.096 137.348 6.984 137.508 7.048C137.7 7.096 137.924 7.192 138.18 7.336C138.452 7.48 138.692 7.648 138.9 7.84C139.108 8.032 139.212 8.24 139.212 8.464C139.212 8.512 139.196 8.584 139.164 8.68H139.14C138.724 9.128 138.316 9.624 137.916 10.168C137.516 10.712 137.164 11.224 136.86 11.704C136.572 12.168 136.372 12.52 136.26 12.76C136.356 12.712 136.46 12.648 136.572 12.568C136.684 12.488 136.804 12.392 136.932 12.28C136.852 12.328 136.78 12.36 136.716 12.376C136.668 12.392 136.66 12.392 136.692 12.376C137.108 12.04 137.588 11.696 138.132 11.344C138.692 10.992 139.26 10.672 139.836 10.384C140.412 10.08 140.956 9.832 141.468 9.64H141.516C141.548 9.64 141.524 9.664 141.444 9.712C141.38 9.744 141.292 9.784 141.18 9.832C141.068 9.88 140.916 9.96 140.724 10.072C140.532 10.168 140.316 10.288 140.076 10.432C140.3 10.336 140.532 10.224 140.772 10.096C141.012 9.968 141.26 9.864 141.516 9.784C141.596 9.752 141.668 9.728 141.732 9.712C141.812 9.696 141.868 9.688 141.9 9.688C142.012 9.688 142.068 9.728 142.068 9.808C142.068 9.92 141.956 10.08 141.732 10.288C141.508 10.496 141.22 10.696 140.868 10.888C140.66 11 140.332 11.208 139.884 11.512C139.452 11.816 138.956 12.176 138.396 12.592C137.836 12.992 137.268 13.408 136.692 13.84C136.132 14.272 135.628 14.672 135.18 15.04C134.732 15.408 134.404 15.704 134.196 15.928ZM136.932 12.28C137.012 12.248 137.092 12.208 137.172 12.16C137.268 12.096 137.332 12.056 137.364 12.04C137.668 11.832 138.068 11.592 138.564 11.32C139.076 11.032 139.58 10.736 140.076 10.432C139.276 10.816 138.644 11.152 138.18 11.44C137.716 11.728 137.3 12.008 136.932 12.28Z" fill="white"/>
</svg>
