<svg width="1456" height="951" viewBox="0 0 1456 951" fill="none" xmlns="http://www.w3.org/2000/svg">
<rect id="behind"  x="375.717" y="628.517" width="677.458" height="291.936" transform="rotate(-49.1067 375.717 628.517)" fill="#25218B"/>
<path id="paper" d="M1445.88 946.457C1447.17 946.637 1448.47 946.249 1449.45 945.395C1450.44 944.54 1451 943.302 1451 942V840.298V9C1451 6.51472 1448.99 4.5 1446.5 4.5H908.194C907.008 4.5 905.87 4.96819 905.027 5.80277C815.605 94.3707 770.686 208.56 750.388 304.921C740.234 353.124 736.218 396.971 735.897 431.084C735.737 448.137 736.5 462.811 737.897 474.416C738.817 482.056 740.035 488.586 741.54 493.644C699.371 495.462 634.903 514.373 561.828 542.266C484.69 571.71 397.292 611.435 315.065 652.605C232.839 693.775 155.69 736.437 99.0537 771.781C70.7516 789.443 47.4723 805.338 31.2233 818.35C23.1122 824.845 16.6261 830.721 12.126 835.82C9.87661 838.369 8.03102 840.826 6.72703 843.159C5.45149 845.441 4.5 847.946 4.5 850.5C4.50001 864.575 13.2899 874.061 25.5677 880.548C37.7279 886.972 54.1417 890.961 71.4783 894.015C82.147 895.895 93.4979 897.469 104.639 899.014C111.564 899.975 118.407 900.924 124.956 901.928C142.32 904.591 157.782 907.661 168.934 912.347C177.183 915.813 185.838 914.802 194.858 911.997C201.993 909.779 209.923 906.243 218.609 902.369C220.787 901.397 223.013 900.405 225.286 899.406C248.194 889.343 277.76 877.785 318.86 876.861C360.824 875.918 387.137 876.529 410.947 881.426C434.684 886.308 456.186 895.505 488.407 912.194C520.707 928.924 542.327 937.807 564.819 937.807C587.26 937.807 609.946 928.96 644.382 912.246C646.316 911.308 648.234 910.375 650.138 909.45C682.364 893.78 710.333 880.181 739.176 874.356C769.414 868.251 800.73 870.698 838.698 889.141C877.404 907.942 901.398 918.783 926.055 922.319C950.807 925.868 975.862 922.015 1016.63 912.582C1056.59 903.337 1084.22 900.185 1110.32 900.82C1136.5 901.457 1161.3 905.902 1195.81 912.1L1198.74 912.627L1199.54 908.198L1198.74 912.627C1247.18 921.325 1317.19 930.086 1375.46 937.378C1402.6 940.775 1427.19 943.852 1445.88 946.457Z" fill="#3431B6" stroke="url(#paint0_linear_52_15)" stroke-width="9" stroke-linejoin="round"/>
<ellipse id="backdrop" cx="1040" cy="468" rx="249" ry="418" fill="url(#paint1_radial_52_15)"/>
<defs>
<linearGradient id="paint0_linear_52_15" x1="713.08" y1="891.62" x2="712.85" y2="942.001" gradientUnits="userSpaceOnUse">
<stop stop-color="#DFCF3B"/>
<stop offset="1" stop-color="#513BDF" stop-opacity="0"/>
</linearGradient>
<radialGradient id="paint1_radial_52_15" cx="0" cy="0" r="1" gradientUnits="userSpaceOnUse" gradientTransform="translate(1040 468) rotate(90) scale(418 249)">
<stop stop-color="#1881E1"/>
<stop offset="1" stop-color="#3431B6"/>
</radialGradient>
</defs>
</svg>
